HIERARCHY
ROOT Hips
{
	OFFSET 0.000000 0.000000 0.000000
	CHANNELS 6 Xposition Yposition Zposition Xrotation Yrotation Zrotation
	JOINT LeftUpLeg_virtual
	{
		OFFSET 0.000000 0.000000 0.000000
		CHANNELS 3 Xrotation Yrotation Zrotation
		JOINT LeftUpLeg
		{
			OFFSET 13.026900 -6.336304 -1.092800
			CHANNELS 3 Xrotation Yrotation Zrotation
			JOINT LeftLeg
			{
				OFFSET 0.524474 -46.096886 9.782700
				CHANNELS 3 Xrotation Yrotation Zrotation
				JOINT LeftFoot
				{
					OFFSET -0.524474 -53.427422 -12.948200
					CHANNELS 3 Xrotation Yrotation Zrotation
					JOINT LeftToeBase
					{
						OFFSET 0.192200 -14.009700 16.364100
						CHANNELS 3 Xrotation Yrotation Zrotation
						JOINT LeftToe_End
						{
							OFFSET -1.784700 -0.561700 9.474800
							CHANNELS 3 Xrotation Yrotation Zrotation
							End Site
							{
								OFFSET 0 0 0
							}
						}
					}
				}
			}
		}
	}
	JOINT RightUpLeg_virtual
	{
		OFFSET 0.000000 0.000000 0.000000
		CHANNELS 3 Xrotation Yrotation Zrotation
		JOINT RightUpLeg
		{
			OFFSET -12.883000 -6.336304 -1.092800
			CHANNELS 3 Xrotation Yrotation Zrotation
			JOINT RightLeg
			{
				OFFSET -0.524587 -46.096825 9.782800
				CHANNELS 3 Xrotation Yrotation Zrotation
				JOINT RightFoot
				{
					OFFSET 0.524587 -53.427383 -12.948300
					CHANNELS 3 Xrotation Yrotation Zrotation
					JOINT RightToeBase
					{
						OFFSET -0.192200 -14.009700 16.364100
						CHANNELS 3 Xrotation Yrotation Zrotation
						JOINT RightToe_End
						{
							OFFSET 1.784700 -0.561700 9.474800
							CHANNELS 3 Xrotation Yrotation Zrotation
							End Site
							{
								OFFSET 0 0 0
							}
						}
					}
				}
			}
		}
	}
	JOINT Spine_virtual
	{
		OFFSET 0.000000 0.000000 0.000000
		CHANNELS 3 Xrotation Yrotation Zrotation
		JOINT Spine
		{
			OFFSET 0.072000 7.257294 -0.789700
			CHANNELS 3 Xrotation Yrotation Zrotation
			JOINT Spine1
			{
				OFFSET 0.000000 12.508769 -0.658067
				CHANNELS 3 Xrotation Yrotation Zrotation
				JOINT Spine1_split
				{
					OFFSET 0.000000 12.508769 -0.658067
					CHANNELS 3 Xrotation Yrotation Zrotation
					JOINT Spine2
					{
						OFFSET 0.000000 12.508769 -0.658067
						CHANNELS 3 Xrotation Yrotation Zrotation
						JOINT Neck_virtual
						{
							OFFSET 0.000000 0.000000 0.000000
							CHANNELS 3 Xrotation Yrotation Zrotation
							JOINT Neck
							{
								OFFSET 0.000000 14.033295 7.520400
								CHANNELS 3 Xrotation Yrotation Zrotation
								JOINT Head
								{
									OFFSET 0.000000 8.198502 5.703100
									CHANNELS 3 Xrotation Yrotation Zrotation
									JOINT HeadTop_End
									{
										OFFSET 0.000000 17.760803 13.332701
										CHANNELS 3 Xrotation Yrotation Zrotation
										End Site
										{
											OFFSET 0 0 0
										}
									}
								}
							}
						}
						JOINT LeftShoulder_virtual
						{
							OFFSET 0.000000 0.000000 0.000000
							CHANNELS 3 Xrotation Yrotation Zrotation
							JOINT LeftShoulder
							{
								OFFSET 6.292450 5.785301 -0.669000
								CHANNELS 3 Xrotation Yrotation Zrotation
								JOINT LeftShoulder_split
								{
									OFFSET 6.292450 5.785301 -0.669000
									CHANNELS 3 Xrotation Yrotation Zrotation
									JOINT LeftArm
									{
										OFFSET 13.907140 -6.093903 1.965100
										CHANNELS 3 Xrotation Yrotation Zrotation
										JOINT LeftForeArm
										{
											OFFSET 34.140198 0.000000 0.000000
											CHANNELS 3 Xrotation Yrotation Zrotation
											JOINT LeftHand
											{
												OFFSET 40.960209 0.000000 0.000000
												CHANNELS 3 Xrotation Yrotation Zrotation
												End Site
												{
													OFFSET 0 0 0
												}
											}
										}
									}
								}
							}
						}
						JOINT RightShoulder_virtual
						{
							OFFSET 0.000000 0.000000 0.000000
							CHANNELS 3 Xrotation Yrotation Zrotation
							JOINT RightShoulder
							{
								OFFSET -6.292450 5.785301 -0.669000
								CHANNELS 3 Xrotation Yrotation Zrotation
								JOINT RightShoulder_split
								{
									OFFSET -6.292450 5.785301 -0.669000
									CHANNELS 3 Xrotation Yrotation Zrotation
									JOINT RightArm
									{
										OFFSET -13.907140 -6.093903 1.965100
										CHANNELS 3 Xrotation Yrotation Zrotation
										JOINT RightForeArm
										{
											OFFSET -34.140198 0.000000 0.000000
											CHANNELS 3 Xrotation Yrotation Zrotation
											JOINT RightHand
											{
												OFFSET -40.960209 0.000000 0.000000
												CHANNELS 3 Xrotation Yrotation Zrotation
												End Site
												{
													OFFSET 0 0 0
												}
											}
										}
									}
								}
							}
						}
					}
				}
			}
		}
	}
}
MOTION
Frames: 4
Frame Time: 0.03333333
-1.537820 94.201683 -1.128967 0.000000 0.000000 0.000000 -19.725679 1.343281 -0.534504 -15.830942 -0.531951 14.189940 54.722557 1.174099 0.553810 -21.494595 0.597101 -13.058535 -1.777113 -0.591913 -0.727785 0.000000 0.000000 0.000000 -19.212653 1.500387 -0.444532 -11.132179 -7.423002 -15.257222 52.431554 2.136610 -0.940867 -24.314471 -3.007486 13.019050 1.098967 -0.266338 -0.628627 0.000000 0.000000 0.000000 -19.727297 3.260973 -0.943625 19.036588 -1.581683 3.208799 9.432644 -0.269322 1.384619 1.508657 4.358395 -1.251764 0.000000 0.000000 0.000000 8.168682 -0.728490 1.289252 -15.782745 0.953821 -1.912186 -18.308725 -2.328646 1.498891 0.000000 0.000000 0.000000 10.238769 -1.101666 1.471076 1.644751 -7.654985 -6.344173 -8.529966 -0.988468 -5.973183 -7.058417 -17.495106 -53.596788 64.462581 -58.417583 56.700727 0.000000 0.000000 0.000000 8.831138 -0.598133 1.154989 10.555101 -0.525736 14.045339 -1.992224 1.572790 -1.975568 -24.309574 10.929375 63.162748 82.875098 66.645762 -79.060211 0.000000 0.000000 0.000000 
-1.454907 94.099442 -1.136429 0.000000 0.000000 0.000000 -19.567766 1.979700 -0.415218 -15.937598 -0.600424 14.015358 54.903325 1.249644 0.744300 -21.368718 0.681842 -13.171151 -2.079401 -0.592496 -0.691575 0.000000 0.000000 0.000000 -19.034766 2.129597 -0.408536 -11.059225 -7.095645 -15.347992 52.145749 2.297136 -1.053818 -24.283582 -3.124733 13.140199 0.707487 -0.217848 -0.638930 0.000000 0.000000 0.000000 -19.378736 3.283121 -0.849475 18.890162 -1.573315 3.119674 9.376034 -0.403383 1.234656 1.527105 3.478287 -1.367612 0.000000 0.000000 0.000000 8.175824 -0.720158 1.149309 -14.996930 0.977977 -2.339977 -18.592040 -1.782591 1.281452 0.000000 0.000000 0.000000 10.095222 -1.142675 1.529129 1.524419 -8.056593 -6.446962 -7.450554 -0.192724 -5.301327 -8.834374 -16.018050 -53.455676 62.043936 -58.696487 53.999995 0.000000 0.000000 0.000000 9.018702 -0.673941 1.162381 10.753119 -0.664236 15.035625 -3.450671 1.328154 -1.071963 -24.135139 8.974624 59.964246 80.815577 66.360854 -75.789254 0.000000 0.000000 0.000000 
-1.361661 94.001823 -1.160553 0.000000 0.000000 0.000000 -18.952826 3.355996 -0.293375 -16.442888 -1.304133 13.744373 55.321520 1.342393 1.003735 -21.221444 0.486845 -12.871970 -2.398430 -0.593061 -0.614432 0.000000 0.000000 0.000000 -18.403496 3.878844 -0.276397 -10.730593 -7.378081 -15.381007 51.688676 2.271093 -1.098502 -24.272016 -3.503997 13.059956 0.515826 -0.216666 -0.464261 0.000000 0.000000 0.000000 -18.767639 4.199683 -0.601134 18.676949 -1.606284 2.959457 9.071978 -0.643963 1.062512 1.169843 2.486023 -0.542437 0.000000 0.000000 0.000000 7.997351 -0.856032 1.070418 -13.519624 0.808452 -2.775534 -18.520244 -1.250702 0.495223 0.000000 0.000000 0.000000 9.684734 -1.243385 1.609141 1.303117 -9.258569 -6.747268 -6.682106 0.292122 -4.563117 -10.195515 -14.690876 -51.811008 58.068083 -57.301674 48.196847 0.000000 0.000000 0.000000 9.085275 -0.956952 1.128760 10.851613 -1.153028 16.718802 -4.289883 2.046413 -0.070432 -23.271378 6.024115 53.060543 85.874691 68.563959 -79.126847 0.000000 0.000000 0.000000 
-1.249967 93.988907 -1.215256 0.000000 0.000000 0.000000 -17.906109 5.304256 -0.214595 -17.346539 -2.650816 13.374427 55.632003 1.404988 1.273627 -21.128973 0.061563 -12.311006 -2.365570 -0.579997 -0.562372 0.000000 0.000000 0.000000 -17.456507 6.409799 -0.125422 -10.304576 -8.252538 -15.389922 51.176763 2.078725 -1.056691 -24.358341 -4.148448 12.822940 0.658314 -0.248585 -0.216601 0.000000 0.000000 0.000000 -17.843881 5.883080 -0.322158 18.422936 -1.722119 2.773781 8.536038 -1.021910 0.923857 0.726289 1.513864 0.693087 0.000000 0.000000 0.000000 7.609933 -1.134101 1.090424 -11.798548 0.403708 -2.781895 -18.174184 -0.691359 -0.719559 0.000000 0.000000 0.000000 9.112711 -1.455195 1.712410 1.043539 -10.864477 -7.325163 -5.577325 0.053137 -3.993309 -10.650076 -13.957890 -48.874593 54.014693 -54.632166 40.885615 0.000000 0.000000 0.000000 8.828590 -1.422665 1.080616 10.815219 -2.004787 18.443080 -4.561964 3.026823 0.633127 -23.301076 2.404095 44.502992 97.541494 72.225630 -89.187149 0.000000 0.000000 0.000000 
